<?xml version="1.0" encoding="UTF-8" standalone="no"?>
<!-- Created with Inkscape (http://www.inkscape.org/) -->

<svg
   xmlns:osb="http://www.openswatchbook.org/uri/2009/osb"
   xmlns:dc="http://purl.org/dc/elements/1.1/"
   xmlns:cc="http://creativecommons.org/ns#"
   xmlns:rdf="http://www.w3.org/1999/02/22-rdf-syntax-ns#"
   xmlns:svg="http://www.w3.org/2000/svg"
   xmlns="http://www.w3.org/2000/svg"
   xmlns:xlink="http://www.w3.org/1999/xlink"
   xmlns:sodipodi="http://sodipodi.sourceforge.net/DTD/sodipodi-0.dtd"
   xmlns:inkscape="http://www.inkscape.org/namespaces/inkscape"
   width="48"
   height="48"
   viewBox="0 0 48 48"
   id="svg5916"
   version="1.1"
   inkscape:version="0.91 r"
   sodipodi:docname="lisplogo_alien_noooo.svg"
   inkscape:export-filename="/home/kim/Svg/alien/lisplogo_alien_noooo.png"
   inkscape:export-xdpi="258.45999"
   inkscape:export-ydpi="258.45999">
  <defs
     id="defs5918">
    <linearGradient
       id="linearGradient6494"
       osb:paint="solid">
      <stop
         style="stop-color:#ffffff;stop-opacity:1;"
         offset="0"
         id="stop6496" />
    </linearGradient>
    <clipPath
       id="clipPath5034"
       clipPathUnits="userSpaceOnUse">
      <rect
         ry="8.8494568"
         y="427.53009"
         x="336.00125"
         height="152.99751"
         width="183.83086"
         id="rect5036"
         style="opacity:1;fill:none;fill-opacity:1;stroke:#000000;stroke-width:3.335814;stroke-linejoin:round;stroke-miterlimit:4;stroke-dasharray:none;stroke-opacity:1" />
    </clipPath>
    <linearGradient
       id="linearGradient5773">
      <stop
         id="stop5775"
         offset="0.00000000"
         style="stop-color:#000000;stop-opacity:0.00000000;" />
      <stop
         style="stop-color:#616161;stop-opacity:1.0000000;"
         offset="0.50000000"
         id="stop5781" />
      <stop
         id="stop5777"
         offset="1"
         style="stop-color:#000000;stop-opacity:0;" />
    </linearGradient>
    <linearGradient
       id="linearGradient8707">
      <stop
         id="stop8709"
         offset="0.00000000"
         style="stop-color:#8de17a;stop-opacity:1.0000000;" />
      <stop
         id="stop8711"
         offset="1.0000000"
         style="stop-color:#a3f590;stop-opacity:1.0000000;" />
    </linearGradient>
    <linearGradient
       id="linearGradient2115">
      <stop
         id="stop2117"
         offset="0.00000000"
         style="stop-color:#d2f1cb;stop-opacity:1.0000000;" />
      <stop
         id="stop2119"
         offset="1.0000000"
         style="stop-color:#cdf9c3;stop-opacity:0.42268041;" />
    </linearGradient>
    <linearGradient
       id="linearGradient7973">
      <stop
         style="stop-color:#71bc60;stop-opacity:1.0000000;"
         offset="0.00000000"
         id="stop7975" />
      <stop
         style="stop-color:#77ce64;stop-opacity:0.42352942;"
         offset="1.0000000"
         id="stop7977" />
    </linearGradient>
    <clipPath
       id="clipPath5034-8"
       clipPathUnits="userSpaceOnUse">
      <rect
         ry="8.8494568"
         y="427.53009"
         x="336.00125"
         height="152.99751"
         width="183.83086"
         id="rect5036-4"
         style="opacity:1;fill:none;fill-opacity:1;stroke:#000000;stroke-width:3.335814;stroke-linejoin:round;stroke-miterlimit:4;stroke-dasharray:none;stroke-opacity:1" />
    </clipPath>
    <clipPath
       id="clipPath5034-1"
       clipPathUnits="userSpaceOnUse">
      <rect
         ry="8.8494568"
         y="427.53009"
         x="336.00125"
         height="152.99751"
         width="183.83086"
         id="rect5036-3"
         style="opacity:1;fill:none;fill-opacity:1;stroke:#000000;stroke-width:3.335814;stroke-linejoin:round;stroke-miterlimit:4;stroke-dasharray:none;stroke-opacity:1" />
    </clipPath>
  </defs>
  <sodipodi:namedview
     id="base"
     pagecolor="#ffffff"
     bordercolor="#666666"
     borderopacity="1.0"
     inkscape:pageopacity="0.0"
     inkscape:pageshadow="2"
     inkscape:zoom="0.25"
     inkscape:cx="-797.5864"
     inkscape:cy="204.68037"
     inkscape:document-units="px"
     inkscape:current-layer="layer1"
     showgrid="false"
     inkscape:snap-nodes="false"
     inkscape:snap-others="false"
     inkscape:snap-to-guides="false"
     inkscape:snap-grids="false"
     inkscape:snap-global="false"
     units="px"
     inkscape:window-width="1366"
     inkscape:window-height="747"
     inkscape:window-x="0"
     inkscape:window-y="21"
     inkscape:window-maximized="1" />
  <metadata
     id="metadata5921">
    <rdf:RDF>
      <cc:Work
         rdf:about="">
        <dc:format>image/svg+xml</dc:format>
        <dc:type
           rdf:resource="http://purl.org/dc/dcmitype/StillImage" />
        <dc:title />
      </cc:Work>
    </rdf:RDF>
  </metadata>
  <g
     inkscape:groupmode="layer"
     id="layer2"
     inkscape:label="レイヤー 2"
     sodipodi:insensitive="true">
    <path
       style="fill:none;fill-rule:evenodd;stroke:none;stroke-width:1px;stroke-linecap:butt;stroke-linejoin:miter;stroke-opacity:1"
       d="m 5.625,18 c 0,0 6.752508,-6.328507 18.875,-6.625 13.751229,-0.336329 21.375,7.25 21.375,7.25"
       id="path5578"
       inkscape:connector-curvature="0"
       sodipodi:nodetypes="csc" />
    <text
       xml:space="preserve"
       style="font-style:normal;font-variant:normal;font-weight:normal;font-stretch:normal;font-size:10px;line-height:125%;font-family:Monospace;-inkscape-font-specification:Monospace;letter-spacing:0px;word-spacing:0px;fill:#a02c2c;fill-opacity:1;stroke:none;stroke-width:1px;stroke-linecap:butt;stroke-linejoin:miter;stroke-opacity:1"
       id="text5580"
       sodipodi:linespacing="125%"><textPath
         xlink:href="#path5578"
         id="textPath5586"><tspan
   id="tspan5584"
   y="4.3735352"
   x="5.5"
   style="fill:#a02c2c;fill-opacity:1">Noooooooooo</tspan></textPath></text>
  </g>
  <g
     inkscape:label="レイヤー 1"
     inkscape:groupmode="layer"
     id="layer1"
     transform="translate(0,-1004.3622)"
     style="display:inline">
    <path
       style="fill:#86d973;fill-opacity:1;fill-rule:evenodd;stroke:#3e7e42;stroke-width:1;stroke-linecap:butt;stroke-linejoin:miter;stroke-miterlimit:4;stroke-dasharray:none;stroke-opacity:1"
       d="m 20.598646,997.64743 c 0,0 0.25975,9.54597 -1.0608,15.64677 -1.775085,8.2006 -1.28798,6.3519 -5.03806,11.0365 -3.61709,4.5185 -2.71354,6.6795 -2.71354,6.6795 0,0 2.32714,5.8776 3.4932,7.1824 0,0 0.53576,2.1732 -0.1284,5.7212 -0.664164,3.548 -1.152,5.2584 -1.152,5.2584 l -1.84175,4.3353 -0.04505,0.082 27.231815,0 0.45495,1.1681 -3.34175,-5.5853 c -0.958424,-3.3927 0.464334,-0.6419 -1.152,-6.2584 -0.586755,-2.0389 1.1216,-7.2212 1.1216,-7.2212 1.91606,-2.5548 1.7432,-4.9324 1.7432,-4.9324 0,0 0.54426,-1.2919 -2.570685,-5.4295 -2.775965,-3.6873 -3.40583,-3.5501 -5.180915,-12.0365 -1.277985,-6.1099 -1.0608,-15.64677 -1.0608,-15.64677 z"
       id="path5924"
       inkscape:connector-curvature="0"
       sodipodi:nodetypes="csscszccccccsscsscc" />
    <path
       style="fill:#a02c2c;fill-rule:evenodd;stroke:#3e7e42;stroke-width:0.40000001;stroke-linecap:butt;stroke-linejoin:miter;stroke-miterlimit:4;stroke-dasharray:none;stroke-opacity:1"
       d="m 17.335296,1030.6985 c 0,0 2.85769,-11.1517 7.57143,-10.8571 4.571425,0.2857 7.285715,10.4286 7.285715,10.4286 0,0 -4.05493,9.0526 -7,9.1428 -2.945075,0.09 -7.857145,-8.7143 -7.857145,-8.7143 z"
       id="path5930"
       inkscape:connector-curvature="0"
       sodipodi:nodetypes="csczc" />
    <flowRoot
       xml:space="preserve"
       id="flowRoot6500"
       style="font-style:normal;font-variant:normal;font-weight:normal;font-stretch:normal;font-size:40px;line-height:1000%;font-family:Monospace;-inkscape-font-specification:Monospace;letter-spacing:0px;word-spacing:0px;fill:#ff0000;fill-opacity:1;stroke:none;stroke-width:1px;stroke-linecap:butt;stroke-linejoin:miter;stroke-opacity:1"><flowRegion
         id="flowRegion6502"><rect
           id="rect6504"
           width="422.85715"
           height="265.71429"
           x="-34.285713"
           y="686.64795"
           style="line-height:1000%;fill:#ff0000" /></flowRegion><flowPara
         id="flowPara6506">)</flowPara></flowRoot>    <flowRoot
       xml:space="preserve"
       id="flowRoot6508"
       style="font-style:normal;font-variant:normal;font-weight:normal;font-stretch:normal;font-size:40px;line-height:125%;font-family:Monospace;-inkscape-font-specification:Monospace;letter-spacing:0px;word-spacing:0px;fill:#000000;fill-opacity:1;stroke:none;stroke-width:1px;stroke-linecap:butt;stroke-linejoin:miter;stroke-opacity:1"><flowRegion
         id="flowRegion6510"><rect
           id="rect6512"
           width="2.8571429"
           height="225.71428"
           x="377.14285"
           y="938.07648" /></flowRegion><flowPara
         id="flowPara6514" /></flowRoot>    <flowRoot
       xml:space="preserve"
       id="flowRoot6524"
       style="font-style:normal;font-variant:normal;font-weight:normal;font-stretch:normal;font-size:30px;line-height:125%;font-family:Monospace;-inkscape-font-specification:Monospace;letter-spacing:0px;word-spacing:0px;fill:#000000;fill-opacity:1;stroke:none;stroke-width:1px;stroke-linecap:butt;stroke-linejoin:miter;stroke-opacity:1"
       transform="translate(66,1029.0289)"><flowRegion
         id="flowRegion6526"><rect
           id="rect6528"
           width="16.666666"
           height="38.333336"
           x="-61"
           y="-8.333333"
           style="font-size:30px" /></flowRegion><flowPara
         id="flowPara6530">)</flowPara></flowRoot>    <flowRoot
       xml:space="preserve"
       id="flowRoot6532"
       style="font-style:normal;font-variant:normal;font-weight:normal;font-stretch:normal;font-size:30px;line-height:125%;font-family:Monospace;-inkscape-font-specification:Monospace;letter-spacing:0px;word-spacing:0px;fill:#000000;fill-opacity:1;stroke:none;stroke-width:1px;stroke-linecap:butt;stroke-linejoin:miter;stroke-opacity:1"
       transform="translate(107,1000.3622)"><flowRegion
         id="flowRegion6534"><rect
           id="rect6536"
           width="33.25"
           height="65"
           x="-76.5"
           y="20"
           style="font-size:30px" /></flowRegion><flowPara
         id="flowPara6538">(</flowPara></flowRoot>    <path
       style="fill:#ff0000;fill-rule:evenodd;stroke:none;stroke-width:1px;stroke-linecap:butt;stroke-linejoin:miter;stroke-opacity:1"
       d="m 18.875,1033.2372 c 0,0 2.5,-3.75 6,-3.75 3.5,0 5.625,4.125 5.625,4.125 0,0 -3.5,6.375 -5.75,5.75 -2.25,-0.625 -5.875,-6.125 -5.875,-6.125 z"
       id="path4680"
       inkscape:connector-curvature="0"
       sodipodi:nodetypes="cscsc" />
    <path
       style="fill:#a3f590;fill-opacity:1;fill-rule:evenodd;stroke:none;stroke-width:1px;stroke-linecap:butt;stroke-linejoin:miter;stroke-opacity:1"
       d="m 28.75,998.3622 c 0,0 -0.5,3.625 0.375,9.25 0.875,5.625 1.5,8.875 1.5,8.875 0,0 -0.25,2.375 1.375,5 1.625,2.625 3.016779,3.4263 3.875,5.25 1,2.125 1.625,2.375 1.625,3.625 0,2.5125 -0.654714,1.8561 -1.5,4.875 -0.875,3.125 -1.5,2.625 -1.625,4.625 -0.180857,2.8937 -0.375,0.875 0.25,3.875 0.625,3 1.125,3.25 2,5.875 0.910014,2.73 0,0.25 0.875,2 0.875,1.75 0.625,1.5 0.625,1.5 l -2.875,0.125 c 0,0 0.375,-1 -0.5,-4.875 -0.875,-3.875 -1.375,-4.125 -1.625,-6.5 -0.277587,-2.6371 -0.375,-4.125 1.125,-7.125 1.5,-3 1,-2.25 1.25,-4 0.25,-1.75 -1.875,-4.5 -3,-6.375 -1.125,-1.875 -2,-1.375 -2.5,-3.875 -0.5,-2.5 -0.875,-1.625 -1.25,-4.625 -0.375,-3 -1,-6.5 -1,-9.25 0,-2.75 -2.375,-8.25 1,-8.25 z"
       id="path5494"
       inkscape:connector-curvature="0"
       sodipodi:nodetypes="cscssssssssccssssssssc" />
    <path
       style="fill:#a3f590;fill-opacity:1;fill-rule:evenodd;stroke:none;stroke-width:1px;stroke-linecap:butt;stroke-linejoin:miter;stroke-opacity:1"
       d="m 21.125,998.1122 2.125,-0.125 c 0,0 -1.25,19.25 -2.125,20.5 -4.019993,5.7428 -4.625,6.75 -4.625,6.75 0,0 -2.601742,1.5014 -2.5,5.125 0.125,4.4519 4.075987,7.0389 3.625,13.25 -0.218994,3.016 -2.25,9.125 -2.25,9.125 l -2.25,0.25 c 0,0 2.625,-4.5 2.875,-9.75 0.25,-5.25 -3.5,-9.875 -3.5,-12.75 0,-2.875 2.875,-6.5 2.875,-6.5 0,0 4,-2.5 5,-10.75 1.725835,-14.23814 0.75,-15.125 0.75,-15.125 z"
       id="path5496"
       inkscape:connector-curvature="0"
       sodipodi:nodetypes="ccscssccsscsc" />
    <ellipse
       style="opacity:1;fill:#000000;fill-opacity:1;stroke:#ffffff;stroke-width:0.64824998;stroke-linejoin:round;stroke-miterlimit:4;stroke-dasharray:none;stroke-opacity:1"
       id="path5942"
       cx="17.763865"
       cy="1018.4843"
       rx="1.8571428"
       ry="1.9285715" />
    <ellipse
       style="opacity:1;fill:#000000;fill-opacity:1;stroke:#ffffff;stroke-width:0.60000002;stroke-linejoin:round;stroke-miterlimit:4;stroke-dasharray:none;stroke-opacity:1"
       id="path5944"
       cx="32.263866"
       cy="1018.5558"
       rx="2.0714285"
       ry="2.1428571" />
  </g>
</svg>
